<svg xmlns="http://www.w3.org/2000/svg" width="20" height="20" viewBox="0 0 20 20" fill="none"><g clip-path="url(#clip0_16251_2550)"><path d="M0.00940339 10.7098C-0.177671 6.5685 1.96008 2.73361 5.41757 0.995735C9.67947 -1.14724 15.2594 0.241692 18.358 4.52425C15.1148 1.52169 10.7764 0.474884 7.19818 1.89956C4.72709 2.8851 3.32573 4.76595 2.71349 5.73276C3.3246 5.99035 3.93627 6.24793 4.54852 6.50552L2.32743 11.5796L0.00940339 10.7098Z" fill="#00C292"></path><path d="M18.8882 5.58594C19.1552 6.10849 21.0702 10.0268 19.179 14.2379C17.5906 17.7715 14.0957 19.7885 10.7828 19.9893C6.11782 20.2719 1.55149 16.9732 -0.00292969 11.8702C2.8304 17.3374 8.5668 19.7255 12.8763 18.1153C16.7199 16.6804 18.1348 12.5527 18.3576 11.8702C18.0515 11.7726 17.7459 11.6756 17.4409 11.5791L16.327 6.32126L18.8882 5.58594Z" fill="#1C1C4D"></path><path d="M16.1194 6.69804C14.6449 7.04867 13.9204 7.01123 13.5769 6.95676C13.5344 6.94995 13.116 6.88187 12.5633 6.77974C12.0769 6.68953 12.0207 6.6725 11.8711 6.65038C11.5429 6.60272 11.0684 6.57889 10.4544 6.69804C9.94252 7.01804 9.49864 7.17633 9.18231 7.26314C8.75034 7.38059 8.4085 7.40442 8.05646 7.68187C7.82517 7.86399 7.68571 8.07676 7.60578 8.22995C7.311 8.67477 7.01564 9.12016 6.71973 9.56612C6.8932 9.7891 7.06496 9.8674 7.17211 9.89974C7.72653 10.0648 8.33027 9.53548 8.69932 9.21208C8.91531 9.02314 9.07347 8.84272 9.17721 8.71336C9.78038 8.68045 10.383 8.64811 10.985 8.61633L14.8813 12.4989C15.1959 12.3338 15.4629 12.1619 15.6857 11.9985C15.9629 11.7976 16.0531 11.6955 16.2486 11.6121C16.4629 11.5219 16.7707 11.4657 17.2146 11.5797C16.8495 9.95251 16.4845 8.32527 16.1194 6.69804Z" fill="#1C1C4D"></path><path d="M2.68066 11.5791L4.75719 6.87615C4.96638 7.0719 5.33032 7.34935 5.81162 7.38339C6.00039 7.397 6.13645 7.36807 6.70618 7.17743C7.64325 6.86594 8.11094 6.70934 8.531 6.53743C8.99699 6.34679 9.18577 6.24977 9.514 6.24807C9.85753 6.24637 10.1381 6.3502 10.3252 6.44041C9.83543 6.74509 9.41196 6.9102 9.11944 7.00381C8.67726 7.14509 8.39325 7.17062 8.04461 7.40381C7.74189 7.60807 7.55481 7.85998 7.44427 8.0353C6.7708 8.52722 6.38985 9.15871 6.5259 9.64892C6.53951 9.69998 6.59223 9.87871 6.75039 10.0183C7.13475 10.3536 7.7708 10.1459 7.96808 10.0813C8.74869 9.82594 9.14155 9.13147 9.264 8.88977C9.82182 8.89431 10.3796 8.89941 10.9375 8.90509L14.8813 13.0123C14.9919 13.2727 14.9392 13.5689 14.7521 13.7545C14.5259 13.9774 14.1432 13.9996 13.866 13.7868C13.1529 13.0719 12.4397 12.3576 11.7266 11.6438C11.7198 11.6268 11.7062 11.5996 11.6773 11.5757C11.6433 11.5451 11.5769 11.5162 11.5412 11.5434C11.5106 11.5672 11.5191 11.6234 11.5208 11.6404C11.5344 11.7255 11.6092 11.7766 11.6296 11.7885C12.2192 12.4546 12.8093 13.1207 13.4001 13.7868C13.5361 14.0387 13.5361 14.3349 13.3915 14.5357C13.1875 14.82 12.7079 14.8983 12.3371 14.6242C11.8655 14.1783 11.3938 13.7323 10.9222 13.2864C10.8983 13.2064 10.8388 13.1502 10.7691 13.1417C10.764 13.1417 10.6875 13.1349 10.6552 13.1791C10.6194 13.2302 10.6518 13.3408 10.7606 13.4327C11.1631 13.8674 11.5656 14.302 11.9681 14.7366C12.1007 14.9 12.1569 15.1076 12.0888 15.2676C11.9885 15.5093 11.6041 15.6506 11.2436 15.4617C10.7016 14.9942 10.1597 14.5272 9.61774 14.0608C9.60413 14.0438 9.57522 14.0149 9.5293 13.9996C9.5157 13.9962 9.45107 13.974 9.43236 13.9962C9.41706 14.0132 9.42726 14.0625 9.5208 14.1919C9.97772 14.6152 10.4341 15.0384 10.8898 15.4617C10.8796 15.5179 10.8405 15.7238 10.6637 15.8481C10.4494 15.9979 10.1211 15.9672 9.87454 15.751C10.0225 15.5196 10.0361 15.2319 9.90685 15.0106C9.74189 14.7264 9.36774 14.5953 9.0225 14.7213C9.031 14.66 9.07862 14.2838 8.82862 14.0115C8.55992 13.7204 8.05651 13.6676 7.63815 13.9315C7.63134 13.8634 7.59053 13.5093 7.29631 13.2915C6.98509 13.0617 6.5174 13.0787 6.15685 13.351C6.15515 13.2847 6.13815 12.8796 5.81842 12.6259C5.49019 12.3655 4.97488 12.374 4.58033 12.6753C4.42726 12.471 4.12454 12.1255 3.62964 11.8702C3.25549 11.6762 2.91026 11.6064 2.68066 11.5791Z" fill="#00C292"></path><path d="M4.6845 12.7966C4.98893 12.509 5.4294 12.4783 5.70661 12.6911C6.00423 12.9175 5.98212 13.3175 5.98042 13.3515C5.87158 13.7073 5.57736 13.9456 5.26444 13.949C4.99403 13.9524 4.80525 13.7788 4.75763 13.7311C4.57566 13.6256 4.46512 13.4349 4.46682 13.2307C4.47022 12.972 4.65899 12.8171 4.6845 12.7966Z" fill="#1C1C4D"></path><path d="M6.07698 13.5851C6.08889 13.5647 6.29977 13.2175 6.70453 13.2073C7.04297 13.1987 7.25385 13.4319 7.28447 13.4643C7.48515 13.5153 7.54977 13.6175 7.56848 13.6515C7.68072 13.8609 7.52936 14.2404 7.1229 14.5128C7.09059 14.5604 6.8712 14.8753 6.48685 14.9077C6.128 14.9366 5.68413 14.7136 5.63481 14.3187C5.59739 14.0345 5.77596 13.7366 6.07698 13.5851Z" fill="#1C1C4D"></path><path d="M7.5415 14.3585C7.5585 14.3296 7.8 13.9568 8.22517 13.9551C8.47007 13.9534 8.64524 14.0759 8.70816 14.1253C8.72857 14.1406 8.93605 14.3262 8.90884 14.6155C8.88503 14.8845 8.67925 15.0257 8.65204 15.0428C8.61122 15.1159 8.43945 15.4087 8.07211 15.5347C7.78979 15.63 7.5466 15.5755 7.45306 15.55C7.23367 15.4428 7.09082 15.2283 7.08231 14.9951C7.07381 14.7142 7.25918 14.4521 7.5415 14.3585Z" fill="#1C1C4D"></path></g><defs><clipPath id="clip0_16251_2550"><rect width="20" height="20" fill="white"></rect></clipPath></defs></svg>